<svg version="1.1" id="Layer_1" xmlns="http://www.w3.org/2000/svg" xmlns:xlink="http://www.w3.org/1999/xlink" x="0px" y="0px"
	 width="100%" viewBox="0 0 95 102" enable-background="new 0 0 95 102" xml:space="preserve">
<path fill="#46BAFE" opacity="1.000000" stroke="none" 
	d="
M93.000000,103.000000 
	C62.387730,103.000000 31.775461,103.000000 1.081596,103.000000 
	C1.081596,69.114883 1.081596,35.229504 1.081596,1.000000 
	C18.352711,1.000000 35.707699,1.000000 53.531342,1.455601 
	C52.198009,9.103421 58.819252,15.877872 54.937355,23.480406 
	C52.354595,25.879177 52.970043,27.030146 55.949223,27.884724 
	C55.962109,30.867460 55.961147,33.433647 55.810204,36.255970 
	C56.052982,37.553871 56.488724,38.581722 56.831371,39.639721 
	C58.729752,45.501400 59.789852,45.965034 65.129715,43.306004 
	C65.791664,42.976383 66.562042,42.864525 67.993523,42.441589 
	C67.993523,44.880943 67.993523,46.817493 67.529968,48.823044 
	C51.953125,48.892036 36.839832,48.892036 21.726542,48.892036 
	C21.937880,48.481312 22.149216,48.070587 22.360552,47.659859 
	C20.761354,46.169308 19.162155,44.678753 17.562958,43.188198 
	C16.677256,44.420128 15.034606,45.643600 15.020732,46.885265 
	C14.845818,62.540485 14.845830,78.199013 15.023481,93.854172 
	C15.037218,95.064758 16.510578,96.717346 17.715240,97.267746 
	C18.343756,97.554916 19.854469,95.868813 20.987511,95.104813 
	C22.414209,94.142807 23.852221,92.409569 25.302481,92.391594 
	C40.957413,92.197601 56.616398,92.214287 72.271912,92.387238 
	C73.635017,92.402298 74.983299,93.932594 76.334938,94.764801 
	C77.734268,95.626381 79.129303,96.494934 80.526222,97.360435 
	C81.353645,95.901894 82.762207,94.495201 82.897865,92.974922 
	C83.281471,88.675964 83.143440,84.330460 83.579590,80.029633 
	C85.294609,81.800415 86.832329,83.433853 87.928360,85.323486 
	C88.848839,86.910454 88.772919,89.295853 89.977547,90.456657 
	C93.768433,94.109619 94.417763,98.236198 93.000000,103.000000 
z"/>
<path fill="#49BBFE" opacity="1.000000" stroke="none" 
	d="
M93.500000,103.000000 
	C94.417763,98.236198 93.768433,94.109619 89.977547,90.456657 
	C88.772919,89.295853 88.848839,86.910454 87.928360,85.323486 
	C86.832329,83.433853 85.294609,81.800415 83.509651,79.565231 
	C83.050102,66.247658 83.006584,53.420811 83.021271,40.594028 
	C83.025986,36.482891 81.523697,34.512276 76.848648,36.066017 
	C76.028976,36.026848 75.560570,36.008457 75.038506,35.530926 
	C74.951996,31.941629 75.087967,28.798536 74.849411,25.684134 
	C74.418312,20.055941 70.172554,16.050421 64.931206,15.850105 
	C62.284672,15.748961 61.201054,16.645899 61.706688,19.173050 
	C59.276562,20.414846 57.165405,21.791149 55.054249,23.167452 
	C58.819252,15.877872 52.198009,9.103421 54.000000,1.455601 
	C68.000000,1.000000 82.000000,1.000000 96.000000,1.000000 
	C96.000000,33.833332 96.018669,66.666718 95.926636,99.499794 
	C95.923218,100.717690 97.533134,103.471313 93.500000,103.000000 
z"/>
<path fill="#E8ECEF" opacity="1.000000" stroke="none" 
	d="
M77.199913,36.086796 
	C81.523697,34.512276 83.025986,36.482891 83.021271,40.594028 
	C83.006584,53.420811 83.050102,66.247658 83.140991,79.538887 
	C83.143440,84.330460 83.281471,88.675964 82.897865,92.974922 
	C82.762207,94.495201 81.353645,95.901894 80.526222,97.360435 
	C79.129303,96.494934 77.734268,95.626381 76.334938,94.764801 
	C74.983299,93.932594 73.635017,92.402298 72.271912,92.387238 
	C56.616398,92.214287 40.957413,92.197601 25.302481,92.391594 
	C23.852221,92.409569 22.414209,94.142807 20.987511,95.104813 
	C19.854469,95.868813 18.343756,97.554916 17.715240,97.267746 
	C16.510578,96.717346 15.037218,95.064758 15.023481,93.854172 
	C14.845830,78.199013 14.845818,62.540485 15.020732,46.885265 
	C15.034606,45.643600 16.677256,44.420128 17.562958,43.188198 
	C19.162155,44.678753 20.761354,46.169308 22.360552,47.659859 
	C22.149216,48.070587 21.937880,48.481312 21.726542,48.892036 
	C36.839832,48.892036 51.953125,48.892036 67.925171,48.893921 
	C69.850822,48.857285 70.917732,48.818760 72.406891,48.845135 
	C75.598282,49.323528 76.133804,47.811726 76.223106,45.412518 
	C76.339096,42.296139 76.855728,39.194679 77.199913,36.086796 
M23.585495,55.789562 
	C22.792511,56.456089 21.320330,57.111378 21.309090,57.790836 
	C21.156502,67.013374 21.206539,76.239281 21.206539,85.241005 
	C25.442022,86.577469 27.172007,85.695091 27.056578,81.597534 
	C26.851093,74.303085 27.118626,66.994751 26.880440,59.702286 
	C26.837006,58.372501 25.326777,57.090630 23.585495,55.789562 
M51.918697,76.437820 
	C51.917446,71.128761 51.760864,65.813782 51.962986,60.512470 
	C52.131470,56.093422 50.452377,54.870003 46.010284,56.524776 
	C46.010284,65.541519 45.932663,74.472687 46.138000,83.397354 
	C46.157192,84.231407 47.969082,85.663338 48.941711,85.657539 
	C49.924770,85.651688 51.501865,84.351120 51.747746,83.353706 
	C52.211151,81.473915 51.905327,79.404503 51.918697,76.437820 
M58.118668,72.489853 
	C58.125202,75.967316 57.901920,79.469673 58.274494,82.907471 
	C58.390373,83.976723 60.120247,84.871056 61.111237,85.845467 
	C62.074188,84.846558 63.842354,83.871086 63.872223,82.845016 
	C64.103401,74.903252 64.101578,66.948814 63.878399,59.006554 
	C63.847645,57.912159 62.203331,56.863106 61.306034,55.793064 
	C60.250893,56.887787 58.395779,57.907940 58.285515,59.090744 
	C57.902851,63.195599 58.126114,67.356934 58.118668,72.489853 
M39.225792,64.551270 
	C39.218441,62.719185 39.545395,60.798462 39.091042,59.084900 
	C38.765846,57.858448 37.393787,56.909573 36.488815,55.836849 
	C35.607971,56.928371 33.995781,57.998924 33.963791,59.114777 
	C33.739552,66.936539 33.736576,74.770638 33.959675,82.592323 
	C33.990780,83.682922 35.647377,84.727158 36.551510,85.792854 
	C37.438957,84.704559 39.040154,83.649986 39.093449,82.522270 
	C39.360500,76.871780 39.222248,71.202141 39.225792,64.551270 
M76.153625,62.601601 
	C76.153046,61.936710 76.226028,61.261909 76.138023,60.608799 
	C75.879333,58.688862 77.078079,55.860615 73.501038,55.860573 
	C69.926193,55.860527 70.915680,58.686600 70.888481,60.606892 
	C70.787254,67.753014 70.719627,74.905960 70.969185,82.044823 
	C71.013855,83.322563 72.622940,84.545616 73.509697,85.793915 
	C74.390045,84.539185 75.974350,83.315300 76.030914,82.024475 
	C76.299911,75.885979 76.153023,69.729263 76.153625,62.601601 
z"/>
<path fill="#49BBFE" opacity="1.000000" stroke="none" 
	d="
M71.984634,48.780235 
	C70.917732,48.818760 69.850822,48.857285 68.388718,48.824928 
	C67.993523,46.817493 67.993523,44.880943 67.993523,42.441589 
	C66.562042,42.864525 65.791664,42.976383 65.129715,43.306004 
	C59.789852,45.965034 58.729752,45.501400 56.831371,39.639721 
	C56.488724,38.581722 56.052982,37.553871 56.121536,36.392921 
	C58.541927,37.057922 59.731712,37.031452 59.338017,34.286186 
	C59.016434,32.043736 59.134331,29.738264 59.460953,27.391840 
	C61.224072,27.368742 62.583607,27.414539 63.956688,27.887794 
	C63.970226,31.716352 63.970226,35.117451 63.970226,38.518551 
	C64.851067,38.540054 65.731911,38.561562 66.612755,38.583065 
	C66.759689,34.863850 66.906616,31.144636 67.343994,27.276455 
	C67.509766,26.146120 67.736313,24.850189 67.193108,24.243689 
	C65.698433,22.574865 63.881134,21.194990 62.540066,19.438560 
	C69.003769,18.485575 71.884392,20.851196 72.006889,26.895678 
	C72.146721,33.795074 72.129356,40.697655 72.123970,47.892971 
	C72.039963,48.384804 72.012299,48.582520 71.984634,48.780235 
M62.793350,40.282131 
	C62.558544,40.328442 62.323734,40.374748 62.088928,40.421055 
	C62.137897,40.526955 62.202980,40.728634 62.233284,40.723541 
	C62.467236,40.684189 62.694454,40.604813 62.793350,40.282131 
z"/>
<path fill="#E5EBEF" opacity="1.000000" stroke="none" 
	d="
M62.191483,19.700798 
	C63.881134,21.194990 65.698433,22.574865 67.193108,24.243689 
	C67.736313,24.850189 67.509766,26.146120 66.957962,27.199749 
	C65.502037,27.334785 64.722595,27.397560 63.943146,27.460335 
	C62.583607,27.414539 61.224072,27.368742 59.075043,27.304150 
	C57.502163,27.346294 56.718769,27.407234 55.935375,27.468174 
	C52.970043,27.030146 52.354595,25.879177 54.937355,23.480406 
	C57.165405,21.791149 59.276562,20.414846 61.702148,19.204283 
	C62.016579,19.370020 62.191479,19.700800 62.191483,19.700798 
z"/>
<path fill="#59C0FC" opacity="1.000000" stroke="none" 
	d="
M55.949223,27.884724 
	C56.718769,27.407234 57.502163,27.346294 58.671467,27.373043 
	C59.134331,29.738264 59.016434,32.043736 59.338017,34.286186 
	C59.731712,37.031452 58.541927,37.057922 56.271519,36.136787 
	C55.961147,33.433647 55.962109,30.867460 55.949223,27.884724 
z"/>
<path fill="#D4E6F1" opacity="1.000000" stroke="none" 
	d="
M62.540062,19.438560 
	C62.191479,19.700800 62.016579,19.370020 62.021118,19.338787 
	C61.201054,16.645899 62.284672,15.748961 64.931206,15.850105 
	C70.172554,16.050421 74.418312,20.055941 74.849411,25.684134 
	C75.087967,28.798536 74.951996,31.941629 74.974548,35.986366 
	C74.938477,39.513485 75.168716,42.166519 74.764977,44.719292 
	C74.595856,45.788654 73.082512,46.645428 72.180305,47.598854 
	C72.129356,40.697655 72.146721,33.795074 72.006889,26.895678 
	C71.884392,20.851196 69.003769,18.485575 62.540062,19.438560 
z"/>
<path fill="#54BFFD" opacity="1.000000" stroke="none" 
	d="
M72.123970,47.892971 
	C73.082512,46.645428 74.595856,45.788654 74.764977,44.719292 
	C75.168716,42.166519 74.938477,39.513485 75.028214,36.445503 
	C75.560570,36.008457 76.028976,36.026848 76.848648,36.066017 
	C76.855728,39.194679 76.339096,42.296139 76.223106,45.412518 
	C76.133804,47.811726 75.598282,49.323528 72.406891,48.845135 
	C72.012299,48.582520 72.039963,48.384804 72.123970,47.892971 
z"/>
<path fill="#4FBDFD" opacity="1.000000" stroke="none" 
	d="
M24.039574,55.788101 
	C25.326777,57.090630 26.837006,58.372501 26.880440,59.702286 
	C27.118626,66.994751 26.851093,74.303085 27.056578,81.597534 
	C27.172007,85.695091 25.442022,86.577469 21.206539,85.241005 
	C21.206539,76.239281 21.156502,67.013374 21.309090,57.790836 
	C21.320330,57.111378 22.792511,56.456089 24.039574,55.788101 
z"/>
<path fill="#4FBDFD" opacity="1.000000" stroke="none" 
	d="
M51.918980,76.925865 
	C51.905327,79.404503 52.211151,81.473915 51.747746,83.353706 
	C51.501865,84.351120 49.924770,85.651688 48.941711,85.657539 
	C47.969082,85.663338 46.157192,84.231407 46.138000,83.397354 
	C45.932663,74.472687 46.010284,65.541519 46.010284,56.524776 
	C50.452377,54.870003 52.131470,56.093422 51.962986,60.512470 
	C51.760864,65.813782 51.917446,71.128761 51.918980,76.925865 
z"/>
<path fill="#52BEFD" opacity="1.000000" stroke="none" 
	d="
M58.118767,71.993317 
	C58.126114,67.356934 57.902851,63.195599 58.285515,59.090744 
	C58.395779,57.907940 60.250893,56.887787 61.306034,55.793064 
	C62.203331,56.863106 63.847645,57.912159 63.878399,59.006554 
	C64.101578,66.948814 64.103401,74.903252 63.872223,82.845016 
	C63.842354,83.871086 62.074188,84.846558 61.111237,85.845467 
	C60.120247,84.871056 58.390373,83.976723 58.274494,82.907471 
	C57.901920,79.469673 58.125202,75.967316 58.118767,71.993317 
z"/>
<path fill="#46BBFE" opacity="1.000000" stroke="none" 
	d="
M39.226120,65.045250 
	C39.222248,71.202141 39.360500,76.871780 39.093449,82.522270 
	C39.040154,83.649986 37.438957,84.704559 36.551510,85.792854 
	C35.647377,84.727158 33.990780,83.682922 33.959675,82.592323 
	C33.736576,74.770638 33.739552,66.936539 33.963791,59.114777 
	C33.995781,57.998924 35.607971,56.928371 36.488815,55.836849 
	C37.393787,56.909573 38.765846,57.858448 39.091042,59.084900 
	C39.545395,60.798462 39.218441,62.719185 39.226120,65.045250 
z"/>
<path fill="#49BBFE" opacity="1.000000" stroke="none" 
	d="
M76.153900,63.090317 
	C76.153023,69.729263 76.299911,75.885979 76.030914,82.024475 
	C75.974350,83.315300 74.390045,84.539185 73.509697,85.793915 
	C72.622940,84.545616 71.013855,83.322563 70.969185,82.044823 
	C70.719627,74.905960 70.787254,67.753014 70.888481,60.606892 
	C70.915680,58.686600 69.926193,55.860527 73.501038,55.860573 
	C77.078079,55.860615 75.879333,58.688862 76.138023,60.608799 
	C76.226028,61.261909 76.153046,61.936710 76.153900,63.090317 
z"/>
<path fill="#59C0FC" opacity="1.000000" stroke="none" 
	d="
M63.956688,27.887794 
	C64.722595,27.397560 65.502037,27.334785 66.667519,27.348717 
	C66.906616,31.144636 66.759689,34.863850 66.612755,38.583065 
	C65.731911,38.561562 64.851067,38.540054 63.970226,38.518551 
	C63.970226,35.117451 63.970226,31.716352 63.956688,27.887794 
z"/>
<path fill="#59C0FC" opacity="1.000000" stroke="none" 
	d="
M62.858555,40.409988 
	C62.694454,40.604813 62.467236,40.684189 62.233284,40.723541 
	C62.202980,40.728634 62.137897,40.526955 62.088928,40.421055 
	C62.323734,40.374748 62.558544,40.328442 62.858555,40.409988 
z"/>
</svg>